<svg xmlns="http://www.w3.org/2000/svg" viewBox="0 0 150 44">
  <path fill="#3B8440" fill-rule="evenodd" d="M149.76 33.95h-11.61V16h-3.71v17.95h-11.62V9.05h20c4.9 0 6.94 1.32 6.94 4.31v20.6zM88.35 39.1c0 2.88-2.16 4.07-6.95 4.07H61.41v-6.82h15.32v-2.4h-8.38c-4.9 0-6.94-1.31-6.94-4.07V9.05h11.61v18.08h3.71V9.05h11.62V39.1zm-30.77-5.15h-20c-4.78 0-6.93-1.31-6.93-4.07V13.36c0-2.99 2.15-4.3 6.94-4.3h4.67v18.07h3.7V.08h11.62v33.87zm-30.64 0h-20c-4.9 0-6.94-1.31-6.94-4.07v-7.3c0-3 2.03-4.19 6.94-4.19h4.67v8.74h3.71V16H0V9.05h20c4.78 0 6.94 1.32 6.94 4.31v20.6zm65.24-24.9h19.99c4.79 0 6.82 1.32 6.82 4.2v7.3c0 2.87-2.03 4.19-6.82 4.19h-4.79V16h-3.71v11.13h15.32v6.82H99c-4.79 0-6.82-1.31-6.82-4.19V9.06z"/>
</svg>
