<svg xmlns="http://www.w3.org/2000/svg" xmlns:xlink="http://www.w3.org/1999/xlink" viewBox="0 0 113 14">
  <path fill="#FFF" fill-rule="evenodd" d="M32.88.16h-2.71c-.19 0-.38.2-.38.38v6.83c0 1.12-.4 1.71-1.44 1.71-1.03 0-1.43-.55-1.43-1.66V.54c0-.19-.22-.38-.38-.38h-2.7c-.21 0-.35.13-.35.33v7.56c0 2.34 1.7 4.22 4.83 4.22 3.17 0 4.9-1.88 4.9-4.22V.49a.34.34 0 0 0-.34-.33zm19.5 4.82l-1.94-.67c-.58-.2-.65-.53-.65-.72 0-.3.3-.6.87-.6.62 0 1.52.17 2.4.85.13.1.3.08.4-.04l1.51-1.91a.3.3 0 0 0-.04-.41A6.6 6.6 0 0 0 50.61 0c-2.82 0-4.5 1.75-4.5 3.65 0 1.49.87 2.86 2.72 3.48l1.73.6c.84.28.98.5.98.86 0 .32-.34.7-1.02.7-.95 0-2.08-.58-2.83-1.2a.26.26 0 0 0-.39.03l-1.55 2.04c-.1.12-.08.31.04.42a7.38 7.38 0 0 0 4.89 1.69c2.64 0 4.55-1.53 4.55-3.83 0-1.58-.98-2.81-2.84-3.46zM8.94.16H.96C.77.16.58.38.58.54v11.27c0 .18.17.34.34.34h2.8c.16 0 .3-.18.3-.34V7.99H7.5c.17 0 .32-.1.37-.3l.5-2.45a.24.24 0 0 0-.25-.3h-4.1V3.2h4.47a.4.4 0 0 0 .37-.3L9.33.57c.04-.2-.15-.4-.4-.4zm103.13 3.06a.4.4 0 0 0 .36-.3l.5-2.34c.04-.2-.1-.4-.3-.4l-8-.02c-.2 0-.39.4-.39.57v11.08c0 .19.24.38.4.38h7.32a.4.4 0 0 0 .36-.3l.5-2.34c.04-.2-.1-.4-.37-.4h-4.77V7.6h3.48a.4.4 0 0 0 .37-.3l.52-2.4c.04-.15-.04-.31-.24-.31h-4.13V3.22h4.39zM79.26.16h-2.71c-.2 0-.38.2-.38.38v6.88c0 1.11-.4 1.66-1.44 1.66-1.03 0-1.43-.55-1.43-1.66V.54c0-.19-.22-.38-.38-.38h-2.65c-.16 0-.4.25-.4.38v7.5c0 2.35 1.7 4.23 4.83 4.23 3.16 0 4.9-1.88 4.9-4.22V.55c0-.18-.16-.39-.34-.39zm8.77.28l3.41 11.46c.05.15-.04.29-.2.29h-3.02c-.16 0-.32-.14-.37-.3l-.52-1.8h-3.05l-.49 1.8c-.04.16-.2.3-.36.3H80.4c-.16 0-.24-.14-.2-.3L83.6.45c.04-.15.24-.28.4-.28h3.63c.15 0 .36.13.4.28zM100.5 7.6l2.5 4.31c.09.15.02.27-.15.27h-3.2a.56.56 0 0 1-.44-.27l-2.03-3.74h-1.15v3.63c0 .17-.2.38-.37.38h-2.7c-.18 0-.36-.21-.36-.38V.5c0-.17.21-.35.38-.35h5.15c2.86 0 4.55 1.87 4.55 3.96a3.6 3.6 0 0 1-2.18 3.49zm-32.04 2.96c.15-.06.24.07.23.18L68 14a7.18 7.18 0 0 1-4.77-1.8c-2.1.3-4.36-.4-5.79-2.06a6.3 6.3 0 0 1-.66-7.03 6.32 6.32 0 0 1 6-3.09 6.22 6.22 0 0 1 5.37 3.96 6.3 6.3 0 0 1-1.62 6.73c.83.19 1.54 0 1.91-.14zM16.43.02c2.4.2 4.55 1.72 5.36 3.96a6.3 6.3 0 0 1-1.27 6.4 6.55 6.55 0 0 1-9.43-.24 6.3 6.3 0 0 1-.67-7.03A6.32 6.32 0 0 1 16.43.02zm26.22 7.59l2.5 4.31c.1.15.02.27-.15.27h-3.19a.56.56 0 0 1-.45-.27l-2.03-3.74H38.2v3.63c0 .17-.2.38-.37.38H35.1c-.17 0-.36-.21-.36-.38V.54c0-.17.21-.38.38-.38h5.16c2.85 0 4.54 1.87 4.54 3.96a3.6 3.6 0 0 1-2.18 3.49zm-2.67-2.3c.98 0 1.37-.43 1.37-1.03 0-.59-.47-1.06-1.45-1.06h-1.7v2.1H40zM15.91 9.15c1.55 0 2.6-1.35 2.6-3 0-1.67-1.06-3.01-2.6-3.01-1.55 0-2.6 1.34-2.6 3s1.05 3 2.6 3zm46.36 0c1.55 0 2.6-1.35 2.6-3 0-1.67-1.05-3.01-2.6-3.01-1.54 0-2.6 1.34-2.6 3s1.05 3 2.6 3zm35.55-3.82c.98 0 1.37-.44 1.37-1.04 0-.59-.47-1.06-1.45-1.06h-1.72v2.1h1.8zM84.7 6.84h2.2l-1.1-3.57-1.1 3.57z"/>
</svg>
